<svg xmlns="http://www.w3.org/2000/svg" width="43" height="28" viewBox="0 0 43 28" fill="none">
  <path d="M31.8301 25.0501C31.8001 24.4901 31.7701 23.98 31.7301 23.4H11.5701V25.16C13.6601 25.14 14.7 25.84 13.64 27.97C11.47 27.97 9.16004 28.08 6.89004 27.89C6.31004 27.84 5.84004 26.84 5.64004 25.96C4.93004 25.83 4.22014 25.7101 3.37014 25.5601C3.26014 24.9001 3.15006 24.2199 3.03006 23.4399C2.30006 23.3599 1.5901 23.2901 0.570096 23.1801C0.570096 18.8501 0.490071 14.5801 0.670071 10.3101C0.690071 9.77006 2.01009 9.26003 3.19009 8.40003V4.96002C4.10009 4.82002 4.82012 4.71003 5.59012 4.59003C5.71011 3.89003 5.8301 3.25998 5.9501 2.53998C6.7301 2.44998 7.45008 2.37003 8.30008 2.28003C8.41008 1.62003 8.52004 0.939985 8.64004 0.169985H16.4901C16.5501 0.899985 16.6101 1.53998 16.6701 2.28998H26.7301C26.2201 0.19998 27.5301 -0.099969 29.4701 0.030031C31.1601 0.140031 32.8601 0.0499895 34.7101 0.0499895C34.8001 0.83999 34.8601 1.46999 34.9501 2.23999C36.3901 2.36999 38.24 2.29001 37.51 4.51001C38.41 4.66001 39.18 4.80002 40.14 4.96002V9.08997C40.97 9.18997 41.6301 9.26 42.5501 9.37V23.23C41.8101 23.28 41.0901 23.34 40.2401 23.4C40.2401 24.77 40.2101 26.18 37.9701 25.79C37.4101 27.2567 36.2035 27.99 34.3501 27.99C33.3301 27.99 32.3101 28 31.2901 27.99C30.3701 27.98 29.38 28.21 29.27 26.87C29.15 25.48 29.9601 25.24 31.2101 25.26C31.3301 25.26 31.4601 25.18 31.8301 25.0501ZM34.5801 12.01C33.5501 11.88 32.78 11.7899 32 11.6899C31.89 10.9999 31.8001 10.43 31.6901 9.77002H27.2201C27.0901 10.5 26.9801 11.13 26.8701 11.78C26.1101 11.84 25.4501 11.8801 24.8301 11.9301C24.0501 15.2501 24.2601 15.7001 26.9501 16.4301C27.0201 17.0401 27.0901 17.67 27.1601 18.37H31.7401C31.7601 17.04 31.83 15.82 33.88 16.08C34.07 16.1 34.5201 15.63 34.5401 15.37C34.6201 14.26 34.5701 13.15 34.5701 12.02L34.5801 12.01ZM16.2101 9.81006H11.6801C11.5201 10.5401 11.3801 11.16 11.2401 11.76C10.4001 11.84 9.68005 11.91 8.77005 12C8.77005 13.09 8.73007 14.09 8.79007 15.09C8.81007 15.39 9.14006 15.9499 9.28006 15.9399C11.3801 15.7699 11.5801 17.1 11.7301 18.38H16.1701C16.2501 17.66 16.32 17.02 16.38 16.42C19.03 15.74 19.3701 15.01 18.4601 11.98C17.7601 11.88 17.0501 11.7801 16.3601 11.6801C16.3101 11.0301 16.2601 10.4999 16.2101 9.81995V9.81006ZM10.9101 21.27C8.97006 20.85 8.41009 21.42 8.94009 23.02H10.9101V21.27ZM34.63 21.28H32.3501C32.3801 21.92 32.4101 22.47 32.4401 23.03H34.4401C34.5001 22.45 34.5501 21.95 34.6201 21.28H34.63Z" fill="white"/>
  <path d="M34.5801 12.01C34.5801 13.14 34.62 14.25 34.55 15.36C34.53 15.62 34.08 16.0999 33.89 16.0699C31.84 15.8099 31.77 17.03 31.75 18.36H27.17C27.09 17.67 27.0201 17.04 26.9601 16.42C24.2701 15.68 24.0601 15.24 24.8401 11.92C25.4601 11.87 26.12 11.83 26.88 11.77C26.99 11.12 27.1001 10.49 27.2301 9.76001H31.7001C31.8101 10.42 31.9 10.9901 32.01 11.6801C32.79 11.7801 33.5601 11.87 34.5901 12L34.5801 12.01Z" fill="black"/>
  <path d="M16.2101 9.81006C16.2601 10.4901 16.3101 11.02 16.3601 11.67C17.0601 11.77 17.7701 11.87 18.4601 11.97C19.3701 15 19.04 15.73 16.38 16.41C16.31 17.02 16.24 17.65 16.17 18.37H11.7301C11.5801 17.09 11.38 15.7601 9.28002 15.9301C9.14002 15.9401 8.81003 15.38 8.79003 15.08C8.73003 14.08 8.77001 13.08 8.77001 11.99C9.68001 11.9 10.4001 11.83 11.2401 11.75C11.3801 11.14 11.52 10.52 11.68 9.80005H16.2101V9.81006Z" fill="black"/>
  <path d="M10.9101 21.27V23.02H8.94011C8.41011 21.43 8.98008 20.85 10.9101 21.27Z" fill="black"/>
  <path d="M34.63 21.28C34.56 21.94 34.5101 22.45 34.4501 23.03H32.4501C32.4201 22.47 32.3901 21.92 32.3601 21.28H34.64H34.63Z" fill="black"/>
</svg>