<svg xmlns="http://www.w3.org/2000/svg" width="28" height="28" viewBox="0 0 28 28" fill="none">
  <path d="M21.5508 22.864C21.7321 23.0453 22.0261 23.0453 22.2074 22.864L22.864 22.2074C23.0453 22.0261 23.0453 21.7321 22.864 21.5508L15.3132 14L22.864 6.44917C23.0453 6.26786 23.0453 5.97389 22.864 5.79258L22.2074 5.13598C22.0261 4.95467 21.7321 4.95467 21.5508 5.13598L14 12.6868L6.44917 5.13598C6.26786 4.95467 5.97389 4.95467 5.79258 5.13598L5.13598 5.79258C4.95467 5.97389 4.95467 6.26786 5.13599 6.44917L12.6868 14L5.13598 21.5508C4.95467 21.7321 4.95467 22.0261 5.13598 22.2074L5.79258 22.864C5.97389 23.0453 6.26786 23.0453 6.44917 22.864L14 15.3132L21.5508 22.864Z" fill="black"/>
</svg>